<svg width="236" height="49" viewBox="0 0 236 49" fill="none" xmlns="http://www.w3.org/2000/svg">
<path d="M48.9866 22.0428C49.1656 24.3585 47.5365 26.4144 45.3492 26.6338C43.6746 26.8017 42.1598 25.844 41.46 24.3484L39.475 24.5234L37.9763 25.2464C37.6335 25.4112 37.403 25.7389 37.3504 26.115C37.2088 27.1293 36.952 28.1061 36.595 29.0344C36.4737 29.3489 36.4949 29.6998 36.6597 29.9931L37.1936 30.9477L38.6781 31.9438C39.4608 31.6444 40.3719 31.7162 41.1213 32.2188C42.3914 33.0713 42.6958 34.8258 41.7513 36.0605C40.9382 37.1243 39.4264 37.4165 38.2757 36.7329C37.5425 36.2981 37.0996 35.5761 36.9914 34.8045L35.3461 33.7013L34.3106 33.5749C33.9547 33.5314 33.6007 33.6537 33.3419 33.9015C32.4682 34.7337 31.4812 35.4487 30.4083 36.021C30.0473 36.2132 29.8157 36.5823 29.7904 36.9898L29.659 39.0871L30.3102 41.6708C31.4185 41.9802 32.3347 42.859 32.636 44.0542C33.0911 45.8613 31.9686 47.6947 30.1383 48.1022C28.487 48.4703 26.7931 47.5076 26.2683 45.8987C25.8598 44.6428 26.235 43.3444 27.0985 42.4959L26.4443 39.8971L25.4341 38.273C25.163 37.8372 24.6837 37.5793 24.17 37.5804C24.167 37.5804 24.165 37.5804 24.1619 37.5804C23.2771 37.5804 22.4115 37.4924 21.5742 37.3275C21.0757 37.2284 20.5609 37.3862 20.2111 37.7553L18.8762 39.1639L17.3816 42.2644C17.7315 42.9753 17.7629 43.8338 17.3928 44.6033C16.7274 45.9827 15.0305 46.5308 13.6745 45.7683C12.5136 45.114 12.011 43.67 12.5166 42.4363C12.8614 41.5949 13.5764 41.0327 14.3854 40.8446L15.8891 37.7239L16.1843 35.6297C16.2379 35.2434 16.0903 34.8541 15.7869 34.6094C14.5906 33.6386 13.5653 32.4666 12.7633 31.1439C12.5641 30.8152 12.2062 30.616 11.8219 30.613L9.73067 30.5928L7.44124 31.3127C7.28046 32.7366 6.30563 34.0016 4.85148 34.4587C2.89779 35.0735 0.816674 33.9996 0.182633 32.058C-0.451409 30.1175 0.619484 27.9949 2.55801 27.3538C3.91508 26.9048 5.34092 27.2779 6.30563 28.1951L8.73562 27.4306L10.5103 26.1656C10.7743 25.9785 10.9148 25.665 10.8885 25.3435C10.8592 24.9865 10.844 24.6265 10.844 24.2625C10.844 22.2845 11.2789 20.4066 12.0555 18.7179C12.1687 18.4701 12.1657 18.185 12.0464 17.9402L11.5205 16.8653L10.0937 15.7883C9.29483 16.0442 8.38978 15.9218 7.66978 15.3788C6.44821 14.4566 6.24192 12.6879 7.25315 11.5078C8.12382 10.4915 9.64977 10.2832 10.7611 11.0295C11.469 11.5048 11.8714 12.249 11.9362 13.0257L13.5177 14.2189L15.1114 14.5031C16.2713 13.4261 17.6233 12.5534 19.1088 11.9416L19.483 9.66838L19.0107 7.32031C17.6132 6.96031 16.4786 5.88942 16.1732 4.46156C15.7424 2.44416 17.1288 0.479336 19.2706 0.0738327C21.4114 -0.331671 23.4965 0.973827 23.9273 2.99123C24.2499 4.501 23.5552 5.98043 22.2871 6.79952L22.7331 9.01412L23.8282 10.7615C23.9 10.8758 24.0254 10.9446 24.1599 10.9446H24.1619C26.6698 10.9446 29.0179 11.6423 31.0231 12.8538C31.1334 12.9195 31.2689 12.9286 31.3851 12.874L33.1002 12.0792L35.1024 9.9131C34.9821 9.13648 35.2036 8.31334 35.7789 7.69143C36.8185 6.56795 38.5983 6.53964 39.6722 7.66311C40.6136 8.64906 40.65 10.2215 39.7561 11.251C39.1777 11.9174 38.3475 12.2248 37.5365 12.1641L35.5342 14.3302L34.884 16.0796C34.8385 16.2009 34.8587 16.3364 34.9346 16.4416C35.7243 17.5256 36.3543 18.733 36.7892 20.0294C36.9095 20.3854 37.1926 20.6625 37.5547 20.7646L39.1827 21.2207L41.2982 21.0336C41.817 19.538 43.1124 18.4064 44.703 18.2466C46.8903 18.0272 48.8086 19.7271 48.9866 22.0428Z" fill="#00AF80"/>
<path d="M24.1621 34.124C29.6084 34.124 34.0236 29.7088 34.0236 24.2625C34.0236 18.8161 29.6084 14.4009 24.1621 14.4009C18.7157 14.4009 14.3005 18.8161 14.3005 24.2625C14.3005 29.7088 18.7157 34.124 24.1621 34.124Z" fill="#E2FFE2"/>
<path d="M17.3063 24.2625C17.3063 19.3269 20.9318 15.2384 25.6649 14.5147C25.1749 14.4398 24.673 14.4009 24.1621 14.4009C18.7156 14.4009 14.3005 18.816 14.3005 24.2625C14.3005 29.7089 18.7156 34.124 24.1621 34.124C24.673 34.124 25.1749 34.0851 25.6649 34.0102C20.9319 33.2864 17.3063 29.1979 17.3063 24.2625Z" fill="#69E781"/>
<path d="M7.56927 6.33426C9.12025 6.33426 10.3776 5.07694 10.3776 3.52597C10.3776 1.975 9.12025 0.717682 7.56927 0.717682C6.0183 0.717682 4.76099 1.975 4.76099 3.52597C4.76099 5.07694 6.0183 6.33426 7.56927 6.33426Z" fill="#00AF80"/>
<path d="M6.80168 42.3985C7.82611 42.3985 8.65658 41.568 8.65658 40.5436C8.65658 39.5192 7.82611 38.6887 6.80168 38.6887C5.77724 38.6887 4.94678 39.5192 4.94678 40.5436C4.94678 41.568 5.77724 42.3985 6.80168 42.3985Z" fill="#00AF80"/>
<path d="M40.8589 46.3228C42.3678 46.3228 43.591 45.0996 43.591 43.5906C43.591 42.0817 42.3678 40.8585 40.8589 40.8585C39.3499 40.8585 38.1267 42.0817 38.1267 43.5906C38.1267 45.0996 39.3499 46.3228 40.8589 46.3228Z" fill="#00AF80"/>
<path d="M21.1348 24.0901C22.5416 24.0901 23.682 22.9497 23.682 21.5429C23.682 20.1361 22.5416 18.9957 21.1348 18.9957C19.7281 18.9957 18.5876 20.1361 18.5876 21.5429C18.5876 22.9497 19.7281 24.0901 21.1348 24.0901Z" fill="#00AF80"/>
<path d="M23.1796 31.1884C24.1371 31.1884 24.9133 30.4122 24.9133 29.4546C24.9133 28.4971 24.1371 27.7209 23.1796 27.7209C22.222 27.7209 21.4458 28.4971 21.4458 29.4546C21.4458 30.4122 22.222 31.1884 23.1796 31.1884Z" fill="#00AF80"/>
<path d="M28.6236 25.7183C29.4276 25.7183 30.0795 25.0665 30.0795 24.2625C30.0795 23.4584 29.4276 22.8066 28.6236 22.8066C27.8195 22.8066 27.1677 23.4584 27.1677 24.2625C27.1677 25.0665 27.8195 25.7183 28.6236 25.7183Z" fill="#00AF80"/>
<path d="M66.984 22.376L61.368 35H59.616L54.024 22.376H55.8L60.528 33.128L65.304 22.376H66.984ZM69.3838 22.376H71.0878V35H69.3838V22.376ZM70.2478 19.616C69.8958 19.616 69.5998 19.496 69.3598 19.256C69.1198 19.016 68.9998 18.728 68.9998 18.392C68.9998 18.072 69.1198 17.792 69.3598 17.552C69.5998 17.312 69.8958 17.192 70.2478 17.192C70.5998 17.192 70.8958 17.312 71.1358 17.552C71.3758 17.776 71.4958 18.048 71.4958 18.368C71.4958 18.72 71.3758 19.016 71.1358 19.256C70.8958 19.496 70.5998 19.616 70.2478 19.616ZM77.4611 24.848C77.8611 24 78.4531 23.36 79.2371 22.928C80.0371 22.496 81.0211 22.28 82.1891 22.28V23.936L81.7811 23.912C80.4531 23.912 79.4131 24.32 78.6611 25.136C77.9091 25.952 77.5331 27.096 77.5331 28.568V35H75.8291V22.376H77.4611V24.848ZM96.8379 22.376V35H95.2059V32.696C94.7579 33.464 94.1419 34.064 93.3579 34.496C92.5739 34.912 91.6779 35.12 90.6699 35.12C89.0219 35.12 87.7179 34.664 86.7579 33.752C85.8139 32.824 85.3419 31.472 85.3419 29.696V22.376H87.0459V29.528C87.0459 30.856 87.3739 31.864 88.0299 32.552C88.6859 33.24 89.6219 33.584 90.8379 33.584C92.1659 33.584 93.2139 33.184 93.9819 32.384C94.7499 31.568 95.1339 30.44 95.1339 29V22.376H96.8379ZM104.994 35.12C103.97 35.12 102.986 34.976 102.042 34.688C101.114 34.384 100.386 34.008 99.8584 33.56L100.626 32.216C101.154 32.632 101.818 32.976 102.618 33.248C103.418 33.504 104.25 33.632 105.114 33.632C106.266 33.632 107.114 33.456 107.658 33.104C108.218 32.736 108.498 32.224 108.498 31.568C108.498 31.104 108.346 30.744 108.042 30.488C107.738 30.216 107.354 30.016 106.89 29.888C106.426 29.744 105.81 29.608 105.042 29.48C104.018 29.288 103.194 29.096 102.57 28.904C101.946 28.696 101.41 28.352 100.962 27.872C100.53 27.392 100.314 26.728 100.314 25.88C100.314 24.824 100.754 23.96 101.634 23.288C102.514 22.616 103.738 22.28 105.306 22.28C106.122 22.28 106.938 22.392 107.754 22.616C108.57 22.824 109.242 23.104 109.77 23.456L109.026 24.824C107.986 24.104 106.746 23.744 105.306 23.744C104.218 23.744 103.394 23.936 102.834 24.32C102.29 24.704 102.018 25.208 102.018 25.832C102.018 26.312 102.17 26.696 102.474 26.984C102.794 27.272 103.186 27.488 103.65 27.632C104.114 27.76 104.754 27.896 105.57 28.04C106.578 28.232 107.386 28.424 107.994 28.616C108.602 28.808 109.122 29.136 109.554 29.6C109.986 30.064 110.202 30.704 110.202 31.52C110.202 32.624 109.738 33.504 108.81 34.16C107.898 34.8 106.626 35.12 104.994 35.12ZM118.945 35.192C117.569 35.192 116.329 34.912 115.225 34.352C114.137 33.776 113.281 32.984 112.657 31.976C112.049 30.968 111.745 29.824 111.745 28.544C111.745 27.264 112.049 26.12 112.657 25.112C113.281 24.104 114.137 23.32 115.225 22.76C116.329 22.184 117.569 21.896 118.945 21.896C120.305 21.896 121.489 22.184 122.497 22.76C123.521 23.32 124.265 24.128 124.729 25.184L121.825 26.744C121.153 25.56 120.185 24.968 118.921 24.968C117.945 24.968 117.137 25.288 116.497 25.928C115.857 26.568 115.537 27.44 115.537 28.544C115.537 29.648 115.857 30.52 116.497 31.16C117.137 31.8 117.945 32.12 118.921 32.12C120.201 32.12 121.169 31.528 121.825 30.344L124.729 31.928C124.265 32.952 123.521 33.752 122.497 34.328C121.489 34.904 120.305 35.192 118.945 35.192ZM132.864 35.192C131.504 35.192 130.28 34.912 129.192 34.352C128.12 33.776 127.28 32.984 126.672 31.976C126.064 30.968 125.76 29.824 125.76 28.544C125.76 27.264 126.064 26.12 126.672 25.112C127.28 24.104 128.12 23.32 129.192 22.76C130.28 22.184 131.504 21.896 132.864 21.896C134.224 21.896 135.44 22.184 136.512 22.76C137.584 23.32 138.424 24.104 139.032 25.112C139.64 26.12 139.944 27.264 139.944 28.544C139.944 29.824 139.64 30.968 139.032 31.976C138.424 32.984 137.584 33.776 136.512 34.352C135.44 34.912 134.224 35.192 132.864 35.192ZM132.864 32.12C133.824 32.12 134.608 31.8 135.216 31.16C135.84 30.504 136.152 29.632 136.152 28.544C136.152 27.456 135.84 26.592 135.216 25.952C134.608 25.296 133.824 24.968 132.864 24.968C131.904 24.968 131.112 25.296 130.488 25.952C129.864 26.592 129.552 27.456 129.552 28.544C129.552 29.632 129.864 30.504 130.488 31.16C131.112 31.8 131.904 32.12 132.864 32.12ZM150.295 21.896C151.895 21.896 153.183 22.376 154.159 23.336C155.151 24.296 155.647 25.72 155.647 27.608V35H151.903V28.184C151.903 27.16 151.679 26.4 151.231 25.904C150.783 25.392 150.135 25.136 149.287 25.136C148.343 25.136 147.591 25.432 147.031 26.024C146.471 26.6 146.191 27.464 146.191 28.616V35H142.447V22.088H146.023V23.6C146.519 23.056 147.135 22.64 147.871 22.352C148.607 22.048 149.415 21.896 150.295 21.896ZM167.369 34.376C167.001 34.648 166.545 34.856 166.001 35C165.473 35.128 164.913 35.192 164.321 35.192C162.785 35.192 161.593 34.8 160.745 34.016C159.913 33.232 159.497 32.08 159.497 30.56V25.256H157.505V22.376H159.497V19.232H163.241V22.376H166.457V25.256H163.241V30.512C163.241 31.056 163.377 31.48 163.648 31.784C163.937 32.072 164.337 32.216 164.849 32.216C165.441 32.216 165.945 32.056 166.361 31.736L167.369 34.376ZM173.046 23.792C173.494 23.168 174.094 22.696 174.846 22.376C175.614 22.056 176.494 21.896 177.486 21.896V25.352C177.07 25.32 176.79 25.304 176.646 25.304C175.574 25.304 174.734 25.608 174.126 26.216C173.518 26.808 173.214 27.704 173.214 28.904V35H169.47V22.088H173.046V23.792ZM185.739 35.192C184.379 35.192 183.155 34.912 182.067 34.352C180.995 33.776 180.155 32.984 179.547 31.976C178.939 30.968 178.635 29.824 178.635 28.544C178.635 27.264 178.939 26.12 179.547 25.112C180.155 24.104 180.995 23.32 182.067 22.76C183.155 22.184 184.379 21.896 185.739 21.896C187.099 21.896 188.315 22.184 189.387 22.76C190.459 23.32 191.299 24.104 191.907 25.112C192.515 26.12 192.819 27.264 192.819 28.544C192.819 29.824 192.515 30.968 191.907 31.976C191.299 32.984 190.459 33.776 189.387 34.352C188.315 34.912 187.099 35.192 185.739 35.192ZM185.739 32.12C186.699 32.12 187.483 31.8 188.091 31.16C188.715 30.504 189.027 29.632 189.027 28.544C189.027 27.456 188.715 26.592 188.091 25.952C187.483 25.296 186.699 24.968 185.739 24.968C184.779 24.968 183.987 25.296 183.363 25.952C182.739 26.592 182.427 27.456 182.427 28.544C182.427 29.632 182.739 30.504 183.363 31.16C183.987 31.8 184.779 32.12 185.739 32.12ZM195.322 17.192H199.066V35H195.322V17.192ZM203.357 35.12C203.005 35.12 202.701 34.992 202.445 34.736C202.205 34.48 202.085 34.168 202.085 33.8C202.085 33.432 202.205 33.128 202.445 32.888C202.701 32.632 203.005 32.504 203.357 32.504C203.709 32.504 204.013 32.632 204.269 32.888C204.525 33.128 204.653 33.432 204.653 33.8C204.653 34.168 204.525 34.48 204.269 34.736C204.013 34.992 203.709 35.12 203.357 35.12Z" fill="#4B4B4B"/>
<path d="M219.65 22.376V35H218.018V32.696C217.57 33.464 216.954 34.064 216.17 34.496C215.386 34.912 214.49 35.12 213.482 35.12C211.834 35.12 210.53 34.664 209.57 33.752C208.626 32.824 208.154 31.472 208.154 29.696V22.376H209.858V29.528C209.858 30.856 210.186 31.864 210.842 32.552C211.498 33.24 212.434 33.584 213.65 33.584C214.978 33.584 216.026 33.184 216.794 32.384C217.562 31.568 217.946 30.44 217.946 29V22.376H219.65ZM235.031 22.376L228.719 36.512C228.207 37.696 227.615 38.536 226.943 39.032C226.271 39.528 225.463 39.776 224.519 39.776C223.911 39.776 223.343 39.68 222.815 39.488C222.287 39.296 221.831 39.008 221.447 38.624L222.239 37.352C222.879 37.992 223.647 38.312 224.543 38.312C225.119 38.312 225.607 38.152 226.007 37.832C226.423 37.512 226.807 36.968 227.159 36.2L227.711 34.976L222.071 22.376H223.847L228.599 33.104L233.351 22.376H235.031Z" fill="#17C0EB"/>
</svg>
