<?xml version="1.0" encoding="iso-8859-1"?>
<!-- Generator: Adobe Illustrator 19.0.0, SVG Export Plug-In . SVG Version: 6.00 Build 0)  -->
<svg version="1.1" id="Layer_1" xmlns="http://www.w3.org/2000/svg" xmlns:xlink="http://www.w3.org/1999/xlink" x="0px" y="0px"
	 viewBox="0 0 512 512" style="enable-background:new 0 0 512 512;" xml:space="preserve">
<g>
	<path style="fill:#ACABB1;" d="M313.232,105.076L175.267,353.391v65.292c1.046,0.143,2.093,0.22,3.136,0.22
		c8.178,0,16.112-4.318,20.365-11.973L336.736,158.61V93.337C327.506,92.076,318.028,96.442,313.232,105.076z"/>
	<path style="fill:#ACABB1;" d="M472.553,422.71c4.518,4.368,10.349,6.541,16.171,6.541c6.09,0,12.17-2.375,16.736-7.098
		c8.934-9.241,8.684-23.974-0.559-32.908L349.75,239.27c-3.699-3.576-8.28-5.655-13.014-6.301v58.455L472.553,422.71z"/>
	<path style="fill:#ACABB1;" d="M161.969,277.616c3.738,3.738,8.436,5.913,13.298,6.575v-59.103L39.728,89.549
		c-9.086-9.087-23.822-9.087-32.912,0C2.275,94.091,0.003,100.043,0,105.996v0.016c0.003,5.955,2.275,11.906,6.817,16.449
		L161.969,277.616z"/>
</g>
<g>
	<path style="fill:#F6E27D;" d="M175.267,353.39v-69.199c-4.864-0.664-9.56-2.838-13.298-6.575l-21.623-21.625H0v186.182
		c0,7.356,3.478,14.279,9.38,18.671c4.063,3.022,8.948,4.602,13.894,4.602c2.239,0,4.492-0.324,6.687-0.982l145.306-43.591v-2.189
		V353.39z"/>
	<path style="fill:#F6E27D;" d="M504.902,389.245c9.242,8.934,9.492,23.667,0.559,32.908c-4.566,4.723-10.646,7.098-16.736,7.098
		c-5.823,0-11.653-2.172-16.171-6.541L336.736,291.424V511.77c0.003-0.002,0.003-0.002,0.006-0.002
		c0.211-0.03,0.42-0.067,0.63-0.101c0.321-0.053,0.642-0.109,0.96-0.175c0.213-0.045,0.42-0.095,0.633-0.144
		c0.318-0.076,0.635-0.16,0.951-0.247c0.115-0.033,0.23-0.057,0.346-0.092l155.151-46.545c9.844-2.953,16.586-12.013,16.586-22.291
		V255.992H367.048L504.902,389.245z"/>
</g>
<g>
	<path style="fill:#F2D23D;" d="M336.736,255.99H282.63L198.768,406.93c-4.253,7.655-12.189,11.973-20.365,11.973
		c-1.044,0-2.091-0.078-3.136-0.22v2.189l146.334,87.8c0.304,0.183,0.618,0.346,0.926,0.514c0.138,0.074,0.272,0.157,0.41,0.227
		c0.518,0.265,1.043,0.51,1.573,0.735c0.121,0.051,0.245,0.095,0.366,0.143c0.416,0.168,0.836,0.329,1.261,0.472
		c0.188,0.064,0.377,0.118,0.566,0.177c0.363,0.112,0.729,0.219,1.097,0.312c0.209,0.054,0.42,0.102,0.63,0.152
		c0.358,0.082,0.718,0.154,1.078,0.217c0.213,0.037,0.424,0.078,0.639,0.107c0.379,0.057,0.757,0.099,1.139,0.137
		c0.194,0.02,0.385,0.045,0.579,0.059c0.534,0.039,1.067,0.062,1.601,0.064c0.036,0,0.073,0.005,0.109,0.005
		c0.062,0,0.124-0.006,0.186-0.006c0.464-0.005,0.925-0.02,1.387-0.051c0.194-0.012,0.388-0.036,0.582-0.054
		c0.334-0.033,0.67-0.064,1.002-0.109V291.424V255.99H336.736z"/>
	<polygon style="fill:#F2D23D;" points="175.267,353.39 229.382,255.99 175.267,255.99 175.267,284.191 	"/>
</g>
<g>
	<path style="fill:#ACABB1;" d="M367.048,255.99L349.75,239.27c-3.699-3.576-8.28-5.655-13.014-6.301v23.021H367.048z"/>
	<path style="fill:#ACABB1;" d="M313.232,105.076l-83.849,150.916h53.248l54.106-97.382V93.337
		C327.506,92.076,318.028,96.442,313.232,105.076z"/>
</g>
<g>
	<path style="fill:#F5DC60;" d="M6.817,122.461C2.275,117.918,0.003,111.966,0,106.012V255.99h140.344L6.817,122.461z"/>
	<path style="fill:#F5DC60;" d="M174.44,0.346c-0.017,0.003-0.033,0.003-0.05,0.006c-0.847,0.15-1.686,0.354-2.515,0.597
		c-0.045,0.012-0.093,0.019-0.137,0.033L16.587,47.518C6.743,50.469,0,59.53,0,69.809v36.188c0.003-5.953,2.275-11.906,6.817-16.449
		c9.089-9.087,23.825-9.087,32.912,0l135.537,135.539V0.248C174.991,0.288,174.713,0.296,174.44,0.346z"/>
	<path style="fill:#F5DC60;" d="M502.62,51.161c-5.904-4.391-13.534-5.733-20.581-3.62L336.736,91.133v2.206v65.271v74.361
		c4.734,0.645,9.315,2.724,13.014,6.301l17.298,16.721H512V69.833C512,62.476,508.521,55.552,502.62,51.161z"/>
</g>
<g>
	<polygon style="fill:#EEBF00;" points="336.736,255.99 336.736,232.969 336.736,158.61 282.63,255.99 	"/>
	<path style="fill:#EEBF00;" d="M313.232,105.076c4.797-8.633,14.274-13,23.504-11.737v-2.206L190.4,3.308
		c-0.115-0.068-0.233-0.127-0.349-0.194c-0.023-0.014-0.045-0.026-0.068-0.037c-2.344-1.342-4.866-2.243-7.45-2.706
		c-0.048-0.009-0.099-0.019-0.149-0.028c-0.842-0.146-1.691-0.245-2.543-0.296c-0.045-0.003-0.09-0.003-0.133-0.006
		c-1.483-0.082-2.968,0.009-4.442,0.209v224.839v30.903h54.115L313.232,105.076z"/>
</g>
<g>
</g>
<g>
</g>
<g>
</g>
<g>
</g>
<g>
</g>
<g>
</g>
<g>
</g>
<g>
</g>
<g>
</g>
<g>
</g>
<g>
</g>
<g>
</g>
<g>
</g>
<g>
</g>
<g>
</g>
</svg>
