<?xml version="1.0" encoding="iso-8859-1"?>
<!-- Generator: Adobe Illustrator 19.0.0, SVG Export Plug-In . SVG Version: 6.00 Build 0)  -->
<svg version="1.1" id="Layer_1" xmlns="http://www.w3.org/2000/svg" xmlns:xlink="http://www.w3.org/1999/xlink" x="0px" y="0px"
	 viewBox="0 0 512 512" style="enable-background:new 0 0 512 512;" xml:space="preserve">
<path style="fill:#C7E9F4;" d="M479.47,197.162C424.947,128.321,343.479,88.839,255.959,88.839
	c-87.469,0-168.907,39.483-223.429,108.323c-6.253,7.894-17.722,9.226-25.616,2.973c-7.894-6.253-9.226-17.722-2.973-25.616
	C65.423,96.892,157.28,52.37,255.959,52.37c98.73,0,190.617,44.522,252.1,122.149c6.253,7.894,4.921,19.363-2.973,25.616
	C497.194,206.385,485.724,205.06,479.47,197.162z"/>
<g>
	<path style="fill:#80D0E1;" d="M90.338,266.076c-7.893-6.254-9.221-17.724-2.966-25.616
		c41.147-51.925,102.602-81.705,168.605-81.706c66.033,0,127.503,29.781,168.652,81.706c6.254,7.893,4.927,19.362-2.966,25.616
		c-7.892,6.255-19.362,4.927-25.616-2.966c-34.189-43.143-85.241-67.887-140.068-67.887c-54.798,0-105.834,24.743-140.022,67.887
		C109.701,271,98.233,272.333,90.338,266.076z"/>
	<path style="fill:#80D0E1;" d="M312.646,329.028c-13.796-17.431-34.444-27.427-56.652-27.427c-22.2,0-42.844,9.997-56.641,27.427
		c-6.251,7.897-17.718,9.23-25.615,2.981c-7.897-6.251-9.23-17.718-2.981-25.615c20.756-26.224,51.823-41.264,85.237-41.264
		c33.421,0,64.491,15.04,85.248,41.264c6.25,7.897,4.915,19.364-2.981,25.615C330.364,338.26,318.896,336.926,312.646,329.028z"/>
</g>
<circle style="fill:#51B3DA;" cx="256.002" cy="413.684" r="45.945"/>
<path style="fill:#80D0E1;" d="M508.058,174.519C446.584,96.902,354.714,52.382,256,52.37v36.469
	c87.506,0.012,168.955,39.493,223.47,108.321c6.256,7.9,17.725,9.222,25.616,2.973C512.98,193.882,514.312,182.414,508.058,174.519z
	"/>
<g>
	<path style="fill:#51B3DA;" d="M424.627,240.46c-41.144-51.919-102.604-81.699-168.628-81.705v36.469
		c54.818,0.007,105.862,24.749,140.045,67.887c6.256,7.893,17.724,9.221,25.616,2.966
		C429.554,259.821,430.882,248.353,424.627,240.46z"/>
	<path style="fill:#51B3DA;" d="M341.242,306.395c-20.755-26.222-51.824-41.262-85.242-41.263v36.469
		c22.205,0.001,42.85,9.999,56.647,27.427c6.251,7.897,17.717,9.232,25.615,2.981C346.157,325.759,347.492,314.291,341.242,306.395z
		"/>
</g>
<path style="fill:#238CC5;" d="M256,367.739v91.891c25.375,0,45.945-20.57,45.945-45.945
	C301.945,388.31,281.374,367.739,256,367.739z"/>
<g>
</g>
<g>
</g>
<g>
</g>
<g>
</g>
<g>
</g>
<g>
</g>
<g>
</g>
<g>
</g>
<g>
</g>
<g>
</g>
<g>
</g>
<g>
</g>
<g>
</g>
<g>
</g>
<g>
</g>
</svg>
